# xmcd CD database file generated by Grip 2.95
# 
# Track frame offsets:
#       150
#       46821
#       59896
#       77328
#       93750
#       111296
#       123317
#       167149
#       194101
#       220269
#       246923
#       264741
#       278102
# 
# Disc length: 4060 seconds
# 
# Revision: 3
# Processed by: cddbd v1.4b41PL3 Copyright (c) Steve Scherf et al.
# Submitted via: Grip 2.95
# 
DISCID=c00fda0d
DTITLE=Funkadelic - Maggot Brain and Others
DYEAR=1900
DGENRE=
TTITLE0=Maggot Brain
TTITLE1=Can You Get To That?
TTITLE2=Hit It And Quit It
TTITLE3=You And Your Folks, Me And My Folks
TTITLE4=Super Stupid
TTITLE5=Back In Our Minds
TTITLE6=Wars Of Armageddon
TTITLE7=Testify - Isley Brothers Feat. Jimi Hendrix
TTITLE8=Dr. Funkenstein
TTITLE9=Mothership Connection (Live)
TTITLE10=Nothing Before Me But Thang
TTITLE11=Funky Woman
TTITLE12=Livin' The Life
EXTD=
EXTT0=
EXTT1=
EXTT2=
EXTT3=
EXTT4=
EXTT5=
EXTT6=
EXTT7=
EXTT8=
EXTT9=
EXTT10=
EXTT11=
EXTT12=
PLAYORDER=
